# 3ds Max Wavefront OBJ Exporter v0.97b - (c)2007 guruware
# File Created: 17.12.2019 11:28:59

#
# object Box001
#

v  -21.9636 0.0000 1.8556
v  21.9846 0.0000 1.8556
v  -21.9636 0.0000 -3.5723
v  21.9846 0.0000 -3.5723
v  -21.9636 46.6945 1.8556
v  21.9846 46.6945 1.8556
v  -21.9636 46.6945 -3.5723
v  21.9846 46.6945 -3.5723
v  -16.9897 14.0420 4.4830
v  9.6719 14.0420 4.4830
v  -16.9897 14.0420 1.4094
v  9.6719 14.0420 1.4094
v  -16.9897 5.4167 4.4830
v  9.6719 5.4167 4.4830
v  -16.9897 5.4167 1.4094
v  9.6719 5.4167 1.4094
v  -17.4381 41.9990 4.4830
v  -7.3771 41.9990 4.4830
v  -17.4381 41.9990 1.4094
v  -7.3771 41.9990 1.4094
v  -17.4381 33.3737 4.4830
v  -7.3771 33.3737 4.4830
v  -17.4381 33.3737 1.4094
v  -7.3771 33.3737 1.4094
v  2.7064 41.9990 4.7655
v  17.8763 41.9990 4.7655
v  2.7064 41.9990 1.1269
v  17.8763 41.9990 1.1269
v  2.7064 28.9939 4.7655
v  17.8763 28.9939 4.7655
v  2.7064 28.9939 1.1269
v  17.8763 28.9939 1.1269
v  21.5718 0.0000 0.7716
v  29.9268 0.0000 0.7716
v  21.5718 0.0000 -3.0516
v  29.9268 0.0000 -3.0516
v  21.5718 22.2330 0.7716
v  29.9268 22.2330 0.7716
v  21.5718 22.2330 -3.0516
v  29.9268 22.2330 -3.0516
v  -31.4674 0.0000 1.3965
v  -21.5900 0.0000 1.3965
v  -31.4674 0.0000 -2.8282
v  -21.5900 0.0000 -2.8282
v  -31.4674 16.9189 1.3965
v  -21.5900 16.9189 1.3965
v  -31.4674 16.9189 -2.8282
v  -21.5900 16.9189 -2.8282
v  -20.9819 0.0000 1.0724
v  -8.1676 0.0000 1.0724
v  -20.9819 0.0000 -2.0012
v  -8.1676 0.0000 -2.0012
v  -20.9819 -10.9857 1.0724
v  -8.1676 -10.9857 1.0724
v  -20.9819 -10.9857 -2.0012
v  -8.1676 -10.9857 -2.0012
v  6.6726 0.0000 1.0724
v  19.4869 0.0000 1.0724
v  6.6726 0.0000 -2.0012
v  19.4869 0.0000 -2.0012
v  6.6726 -10.9857 1.0724
v  19.4869 -10.9857 1.0724
v  6.6726 -10.9857 -2.0012
v  19.4869 -10.9857 -2.0012
# 64 vertices

vn 0.0000 -1.0000 -0.0000
vn 0.0000 1.0000 -0.0000
vn 0.0000 0.0000 1.0000
vn 1.0000 0.0000 -0.0000
vn 0.0000 0.0000 -1.0000
vn -1.0000 0.0000 -0.0000
# 6 vertex normals

vt 1.0000 0.0000 0.0000
vt 1.0000 1.0000 0.0000
vt 0.0000 1.0000 0.0000
vt 0.0000 0.0000 0.0000
# 4 texture coords

o Box001
g Box001
f 1/1/1 3/2/1 4/3/1 
f 4/3/1 2/4/1 1/1/1 
f 5/4/2 6/1/2 8/2/2 
f 8/2/2 7/3/2 5/4/2 
f 1/4/3 2/1/3 6/2/3 
f 6/2/3 5/3/3 1/4/3 
f 2/4/4 4/1/4 8/2/4 
f 8/2/4 6/3/4 2/4/4 
f 4/4/5 3/1/5 7/2/5 
f 7/2/5 8/3/5 4/4/5 
f 3/4/6 1/1/6 5/2/6 
f 5/2/6 7/3/6 3/4/6 
f 11/3/2 9/4/2 12/2/2 
f 10/1/2 12/2/2 9/4/2 
f 14/4/1 13/1/1 16/3/1 
f 15/2/1 16/3/1 13/1/1 
f 10/1/3 9/4/3 14/2/3 
f 13/3/3 14/2/3 9/4/3 
f 12/1/4 10/4/4 16/2/4 
f 14/3/4 16/2/4 10/4/4 
f 11/1/5 12/4/5 15/2/5 
f 16/3/5 15/2/5 12/4/5 
f 9/1/6 11/4/6 13/2/6 
f 15/3/6 13/2/6 11/4/6 
f 19/3/2 17/4/2 20/2/2 
f 18/1/2 20/2/2 17/4/2 
f 22/4/1 21/1/1 24/3/1 
f 23/2/1 24/3/1 21/1/1 
f 18/1/3 17/4/3 22/2/3 
f 21/3/3 22/2/3 17/4/3 
f 20/1/4 18/4/4 24/2/4 
f 22/3/4 24/2/4 18/4/4 
f 19/1/5 20/4/5 23/2/5 
f 24/3/5 23/2/5 20/4/5 
f 17/1/6 19/4/6 21/2/6 
f 23/3/6 21/2/6 19/4/6 
f 27/3/2 25/4/2 28/2/2 
f 26/1/2 28/2/2 25/4/2 
f 30/4/1 29/1/1 32/3/1 
f 31/2/1 32/3/1 29/1/1 
f 26/1/3 25/4/3 30/2/3 
f 29/3/3 30/2/3 25/4/3 
f 28/1/4 26/4/4 32/2/4 
f 30/3/4 32/2/4 26/4/4 
f 27/1/5 28/4/5 31/2/5 
f 32/3/5 31/2/5 28/4/5 
f 25/1/6 27/4/6 29/2/6 
f 31/3/6 29/2/6 27/4/6 
f 33/1/1 35/2/1 36/3/1 
f 36/3/1 34/4/1 33/1/1 
f 37/4/2 38/1/2 40/2/2 
f 40/2/2 39/3/2 37/4/2 
f 33/4/3 34/1/3 38/2/3 
f 38/2/3 37/3/3 33/4/3 
f 34/4/4 36/1/4 40/2/4 
f 40/2/4 38/3/4 34/4/4 
f 36/4/5 35/1/5 39/2/5 
f 39/2/5 40/3/5 36/4/5 
f 35/4/6 33/1/6 37/2/6 
f 37/2/6 39/3/6 35/4/6 
f 41/1/1 43/2/1 44/3/1 
f 44/3/1 42/4/1 41/1/1 
f 45/4/2 46/1/2 48/2/2 
f 48/2/2 47/3/2 45/4/2 
f 41/4/3 42/1/3 46/2/3 
f 46/2/3 45/3/3 41/4/3 
f 42/4/4 44/1/4 48/2/4 
f 48/2/4 46/3/4 42/4/4 
f 44/4/5 43/1/5 47/2/5 
f 47/2/5 48/3/5 44/4/5 
f 43/4/6 41/1/6 45/2/6 
f 45/2/6 47/3/6 43/4/6 
f 51/3/2 49/4/2 52/2/2 
f 50/1/2 52/2/2 49/4/2 
f 54/4/1 53/1/1 56/3/1 
f 55/2/1 56/3/1 53/1/1 
f 50/1/3 49/4/3 54/2/3 
f 53/3/3 54/2/3 49/4/3 
f 52/1/4 50/4/4 56/2/4 
f 54/3/4 56/2/4 50/4/4 
f 51/1/5 52/4/5 55/2/5 
f 56/3/5 55/2/5 52/4/5 
f 49/1/6 51/4/6 53/2/6 
f 55/3/6 53/2/6 51/4/6 
f 59/3/2 57/4/2 60/2/2 
f 58/1/2 60/2/2 57/4/2 
f 62/4/1 61/1/1 64/3/1 
f 63/2/1 64/3/1 61/1/1 
f 58/1/3 57/4/3 62/2/3 
f 61/3/3 62/2/3 57/4/3 
f 60/1/4 58/4/4 64/2/4 
f 62/3/4 64/2/4 58/4/4 
f 59/1/5 60/4/5 63/2/5 
f 64/3/5 63/2/5 60/4/5 
f 57/1/6 59/4/6 61/2/6 
f 63/3/6 61/2/6 59/4/6 
# 96 faces

